<mxfile host="app.diagrams.net" modified="2024-04-04T07:31:21.607Z" agent="Mozilla/5.0 (Windows NT 10.0; Win64; x64) AppleWebKit/537.36 (KHTML, like Gecko) Chrome/123.0.0.0 Safari/537.36 Edg/123.0.0.0" etag="CtVzAjwm95LjdRcCtjdO" version="24.2.1" type="device">
  <diagram id="aQojRZm5_sc3E6bbbMVW" name="do_request">
    <mxGraphModel dx="3161" dy="1782" grid="0" gridSize="10" guides="1" tooltips="1" connect="1" arrows="1" fold="1" page="0" pageScale="1" pageWidth="4681" pageHeight="3300" background="#ffffff" math="0" shadow="0">
      <root>
        <mxCell id="0" />
        <mxCell id="1" parent="0" />
        <mxCell id="qXt6b6wiydwx4cWJsFyy-5" value="" style="group" parent="1" vertex="1" connectable="0">
          <mxGeometry x="-576" y="78" width="117" height="134" as="geometry" />
        </mxCell>
        <mxCell id="qXt6b6wiydwx4cWJsFyy-1" value="" style="rounded=1;whiteSpace=wrap;html=1;" parent="qXt6b6wiydwx4cWJsFyy-5" vertex="1">
          <mxGeometry width="117" height="134" as="geometry" />
        </mxCell>
        <mxCell id="qXt6b6wiydwx4cWJsFyy-2" value="&lt;b&gt;&lt;font style=&quot;font-size: 14px;&quot;&gt;浏览器&lt;/font&gt;&lt;/b&gt;" style="text;html=1;align=center;verticalAlign=middle;resizable=0;points=[];autosize=1;strokeColor=none;fillColor=none;" parent="qXt6b6wiydwx4cWJsFyy-5" vertex="1">
          <mxGeometry x="28.5" y="14" width="60" height="29" as="geometry" />
        </mxCell>
        <mxCell id="qXt6b6wiydwx4cWJsFyy-4" value="&lt;font size=&quot;1&quot;&gt;&lt;b&gt;http请求报文&lt;/b&gt;&lt;/font&gt;" style="rounded=1;whiteSpace=wrap;html=1;" parent="qXt6b6wiydwx4cWJsFyy-5" vertex="1">
          <mxGeometry x="7" y="57" width="103" height="51" as="geometry" />
        </mxCell>
        <mxCell id="qXt6b6wiydwx4cWJsFyy-6" value="" style="endArrow=classic;html=1;rounded=0;strokeWidth=3;" parent="1" edge="1">
          <mxGeometry width="50" height="50" relative="1" as="geometry">
            <mxPoint x="-456" y="144.5" as="sourcePoint" />
            <mxPoint x="-377" y="144.5" as="targetPoint" />
          </mxGeometry>
        </mxCell>
        <mxCell id="qXt6b6wiydwx4cWJsFyy-7" value="&lt;b&gt;&lt;font style=&quot;font-size: 14px;&quot;&gt;解析报文&lt;/font&gt;&lt;/b&gt;" style="text;html=1;align=center;verticalAlign=middle;resizable=0;points=[];autosize=1;strokeColor=none;fillColor=none;" parent="1" vertex="1">
          <mxGeometry x="-443" y="108" width="74" height="29" as="geometry" />
        </mxCell>
        <mxCell id="qXt6b6wiydwx4cWJsFyy-8" value="&lt;font size=&quot;1&quot;&gt;&lt;b&gt;报文m_url&lt;/b&gt;&lt;/font&gt;" style="rounded=1;whiteSpace=wrap;html=1;" parent="1" vertex="1">
          <mxGeometry x="-367" y="119.5" width="103" height="51" as="geometry" />
        </mxCell>
        <mxCell id="qXt6b6wiydwx4cWJsFyy-12" value="" style="group" parent="1" vertex="1" connectable="0">
          <mxGeometry x="-265" y="-85" width="185" height="460" as="geometry" />
        </mxCell>
        <mxCell id="qXt6b6wiydwx4cWJsFyy-9" value="" style="strokeWidth=3;html=1;shape=mxgraph.flowchart.annotation_2;align=left;labelPosition=right;pointerEvents=1;" parent="qXt6b6wiydwx4cWJsFyy-12" vertex="1">
          <mxGeometry width="108" height="460" as="geometry" />
        </mxCell>
        <mxCell id="qXt6b6wiydwx4cWJsFyy-10" value="" style="endArrow=classic;html=1;rounded=0;strokeWidth=3;" parent="qXt6b6wiydwx4cWJsFyy-12" edge="1">
          <mxGeometry width="50" height="50" relative="1" as="geometry">
            <mxPoint x="106" as="sourcePoint" />
            <mxPoint x="185" as="targetPoint" />
          </mxGeometry>
        </mxCell>
        <mxCell id="qXt6b6wiydwx4cWJsFyy-11" value="" style="endArrow=classic;html=1;rounded=0;strokeWidth=3;" parent="qXt6b6wiydwx4cWJsFyy-12" edge="1">
          <mxGeometry width="50" height="50" relative="1" as="geometry">
            <mxPoint x="98" y="460" as="sourcePoint" />
            <mxPoint x="177" y="460" as="targetPoint" />
          </mxGeometry>
        </mxCell>
        <mxCell id="qXt6b6wiydwx4cWJsFyy-13" value="&lt;b&gt;&lt;font style=&quot;font-size: 14px;&quot;&gt;Get&lt;/font&gt;&lt;/b&gt;" style="rounded=1;whiteSpace=wrap;html=1;" parent="1" vertex="1">
          <mxGeometry x="-83" y="-103" width="83" height="38" as="geometry" />
        </mxCell>
        <mxCell id="qXt6b6wiydwx4cWJsFyy-14" value="&lt;b&gt;&lt;font style=&quot;font-size: 14px;&quot;&gt;Post&lt;/font&gt;&lt;/b&gt;" style="rounded=1;whiteSpace=wrap;html=1;" parent="1" vertex="1">
          <mxGeometry x="-88" y="351" width="83" height="44" as="geometry" />
        </mxCell>
        <mxCell id="qXt6b6wiydwx4cWJsFyy-15" value="" style="group" parent="1" vertex="1" connectable="0">
          <mxGeometry x="17" y="-205" width="26" height="239" as="geometry" />
        </mxCell>
        <mxCell id="qXt6b6wiydwx4cWJsFyy-16" value="" style="strokeWidth=3;html=1;shape=mxgraph.flowchart.annotation_2;align=left;labelPosition=right;pointerEvents=1;" parent="qXt6b6wiydwx4cWJsFyy-15" vertex="1">
          <mxGeometry x="-16" width="31.180000000000003" height="239" as="geometry" />
        </mxCell>
        <mxCell id="qXt6b6wiydwx4cWJsFyy-17" value="" style="endArrow=classic;html=1;rounded=0;strokeWidth=3;" parent="qXt6b6wiydwx4cWJsFyy-15" edge="1">
          <mxGeometry width="50" height="50" relative="1" as="geometry">
            <mxPoint x="14.8972972972973" as="sourcePoint" />
            <mxPoint x="26.000000000000007" as="targetPoint" />
          </mxGeometry>
        </mxCell>
        <mxCell id="qXt6b6wiydwx4cWJsFyy-18" value="" style="endArrow=classic;html=1;rounded=0;strokeWidth=3;" parent="qXt6b6wiydwx4cWJsFyy-15" edge="1">
          <mxGeometry width="50" height="50" relative="1" as="geometry">
            <mxPoint x="13.772972972972978" y="239" as="sourcePoint" />
            <mxPoint x="24.87567567567568" y="239" as="targetPoint" />
          </mxGeometry>
        </mxCell>
        <mxCell id="qXt6b6wiydwx4cWJsFyy-21" value="&lt;b&gt;判断/之后&lt;/b&gt;&lt;div&gt;&lt;b&gt;第一个字符&lt;/b&gt;&lt;/div&gt;" style="text;html=1;align=center;verticalAlign=middle;resizable=0;points=[];autosize=1;strokeColor=none;fillColor=none;" parent="1" vertex="1">
          <mxGeometry x="-68" y="-144" width="78" height="41" as="geometry" />
        </mxCell>
        <mxCell id="qXt6b6wiydwx4cWJsFyy-22" value="&lt;font size=&quot;1&quot;&gt;&lt;b&gt;0&lt;/b&gt;&lt;/font&gt;" style="rounded=1;whiteSpace=wrap;html=1;" parent="1" vertex="1">
          <mxGeometry x="43" y="-228" width="76" height="40" as="geometry" />
        </mxCell>
        <mxCell id="qXt6b6wiydwx4cWJsFyy-23" value="&lt;font size=&quot;1&quot;&gt;&lt;b&gt;1&lt;/b&gt;&lt;/font&gt;" style="rounded=1;whiteSpace=wrap;html=1;" parent="1" vertex="1">
          <mxGeometry x="39" y="15" width="76" height="40" as="geometry" />
        </mxCell>
        <mxCell id="qXt6b6wiydwx4cWJsFyy-24" value="" style="endArrow=classic;html=1;rounded=0;strokeWidth=3;" parent="1" edge="1">
          <mxGeometry width="50" height="50" relative="1" as="geometry">
            <mxPoint x="121" y="-205" as="sourcePoint" />
            <mxPoint x="200" y="-205" as="targetPoint" />
          </mxGeometry>
        </mxCell>
        <mxCell id="qXt6b6wiydwx4cWJsFyy-25" value="&lt;b&gt;&lt;font style=&quot;font-size: 14px;&quot;&gt;注册&lt;/font&gt;&lt;/b&gt;" style="text;html=1;align=center;verticalAlign=middle;resizable=0;points=[];autosize=1;strokeColor=none;fillColor=none;" parent="1" vertex="1">
          <mxGeometry x="136" y="-237" width="46" height="29" as="geometry" />
        </mxCell>
        <mxCell id="qXt6b6wiydwx4cWJsFyy-26" value="" style="endArrow=classic;html=1;rounded=0;strokeWidth=3;" parent="1" edge="1">
          <mxGeometry width="50" height="50" relative="1" as="geometry">
            <mxPoint x="115" y="33" as="sourcePoint" />
            <mxPoint x="194" y="33" as="targetPoint" />
          </mxGeometry>
        </mxCell>
        <mxCell id="qXt6b6wiydwx4cWJsFyy-27" value="&lt;b&gt;&lt;font style=&quot;font-size: 14px;&quot;&gt;登录&lt;/font&gt;&lt;/b&gt;" style="text;html=1;align=center;verticalAlign=middle;resizable=0;points=[];autosize=1;strokeColor=none;fillColor=none;" parent="1" vertex="1">
          <mxGeometry x="130" y="1" width="46" height="29" as="geometry" />
        </mxCell>
        <mxCell id="qXt6b6wiydwx4cWJsFyy-28" value="&lt;font size=&quot;1&quot;&gt;&lt;b&gt;register.html&lt;/b&gt;&lt;/font&gt;" style="rounded=1;whiteSpace=wrap;html=1;" parent="1" vertex="1">
          <mxGeometry x="196" y="-225" width="124" height="40" as="geometry" />
        </mxCell>
        <mxCell id="qXt6b6wiydwx4cWJsFyy-29" value="&lt;font size=&quot;1&quot;&gt;&lt;b&gt;log.html&lt;/b&gt;&lt;/font&gt;" style="rounded=1;whiteSpace=wrap;html=1;" parent="1" vertex="1">
          <mxGeometry x="191" y="10" width="124" height="40" as="geometry" />
        </mxCell>
        <mxCell id="qXt6b6wiydwx4cWJsFyy-30" value="" style="endArrow=classic;html=1;rounded=0;strokeWidth=3;" parent="1" edge="1">
          <mxGeometry width="50" height="50" relative="1" as="geometry">
            <mxPoint x="2" y="375" as="sourcePoint" />
            <mxPoint x="81" y="375" as="targetPoint" />
          </mxGeometry>
        </mxCell>
        <mxCell id="qXt6b6wiydwx4cWJsFyy-31" value="&lt;b&gt;&lt;font style=&quot;font-size: 14px;&quot;&gt;消息体提取&lt;/font&gt;&lt;/b&gt;" style="text;html=1;align=center;verticalAlign=middle;resizable=0;points=[];autosize=1;strokeColor=none;fillColor=none;" parent="1" vertex="1">
          <mxGeometry x="-5" y="338" width="88" height="29" as="geometry" />
        </mxCell>
        <mxCell id="qXt6b6wiydwx4cWJsFyy-32" value="&lt;b&gt;&lt;font style=&quot;font-size: 14px;&quot;&gt;用户名、密码&lt;/font&gt;&lt;/b&gt;" style="text;html=1;align=center;verticalAlign=middle;resizable=0;points=[];autosize=1;strokeColor=none;fillColor=none;" parent="1" vertex="1">
          <mxGeometry x="-7" y="383" width="102" height="29" as="geometry" />
        </mxCell>
        <mxCell id="qXt6b6wiydwx4cWJsFyy-33" value="&lt;b&gt;&lt;font style=&quot;font-size: 14px;&quot;&gt;username&lt;/font&gt;&lt;/b&gt;&lt;div&gt;&lt;b&gt;&lt;font style=&quot;font-size: 14px;&quot;&gt;passwd&lt;/font&gt;&lt;/b&gt;&lt;/div&gt;" style="rounded=1;whiteSpace=wrap;html=1;" parent="1" vertex="1">
          <mxGeometry x="102" y="351" width="83" height="44" as="geometry" />
        </mxCell>
        <mxCell id="qXt6b6wiydwx4cWJsFyy-34" value="" style="group" parent="1" vertex="1" connectable="0">
          <mxGeometry x="231" y="236" width="70" height="274" as="geometry" />
        </mxCell>
        <mxCell id="qXt6b6wiydwx4cWJsFyy-35" value="" style="strokeWidth=3;html=1;shape=mxgraph.flowchart.annotation_2;align=left;labelPosition=right;pointerEvents=1;" parent="qXt6b6wiydwx4cWJsFyy-34" vertex="1">
          <mxGeometry x="-43.07692307692308" width="83.94615384615386" height="274" as="geometry" />
        </mxCell>
        <mxCell id="qXt6b6wiydwx4cWJsFyy-36" value="" style="endArrow=classic;html=1;rounded=0;strokeWidth=3;" parent="qXt6b6wiydwx4cWJsFyy-34" edge="1">
          <mxGeometry width="50" height="50" relative="1" as="geometry">
            <mxPoint x="40.10810810810812" as="sourcePoint" />
            <mxPoint x="70.00000000000003" as="targetPoint" />
          </mxGeometry>
        </mxCell>
        <mxCell id="qXt6b6wiydwx4cWJsFyy-37" value="" style="endArrow=classic;html=1;rounded=0;strokeWidth=3;" parent="qXt6b6wiydwx4cWJsFyy-34" edge="1">
          <mxGeometry width="50" height="50" relative="1" as="geometry">
            <mxPoint x="37.081081081081095" y="274" as="sourcePoint" />
            <mxPoint x="66.972972972973" y="274" as="targetPoint" />
          </mxGeometry>
        </mxCell>
        <mxCell id="qXt6b6wiydwx4cWJsFyy-38" value="&lt;b&gt;判断/之后&lt;/b&gt;&lt;div&gt;&lt;b&gt;第一个字符&lt;/b&gt;&lt;/div&gt;" style="text;html=1;align=center;verticalAlign=middle;resizable=0;points=[];autosize=1;strokeColor=none;fillColor=none;" parent="1" vertex="1">
          <mxGeometry x="133" y="313" width="78" height="41" as="geometry" />
        </mxCell>
        <mxCell id="qXt6b6wiydwx4cWJsFyy-39" value="&lt;b&gt;&lt;font style=&quot;font-size: 14px;&quot;&gt;登录校验&lt;/font&gt;&lt;/b&gt;" style="text;html=1;align=center;verticalAlign=middle;resizable=0;points=[];autosize=1;strokeColor=none;fillColor=none;" parent="1" vertex="1">
          <mxGeometry x="211" y="200" width="74" height="29" as="geometry" />
        </mxCell>
        <mxCell id="qXt6b6wiydwx4cWJsFyy-40" value="&lt;b&gt;&lt;font style=&quot;font-size: 14px;&quot;&gt;注册校验&lt;/font&gt;&lt;/b&gt;" style="text;html=1;align=center;verticalAlign=middle;resizable=0;points=[];autosize=1;strokeColor=none;fillColor=none;" parent="1" vertex="1">
          <mxGeometry x="211" y="518" width="74" height="29" as="geometry" />
        </mxCell>
        <mxCell id="qXt6b6wiydwx4cWJsFyy-41" value="&lt;font size=&quot;1&quot;&gt;&lt;b&gt;2&lt;/b&gt;&lt;/font&gt;" style="rounded=1;whiteSpace=wrap;html=1;" parent="1" vertex="1">
          <mxGeometry x="301" y="215" width="76" height="40" as="geometry" />
        </mxCell>
        <mxCell id="qXt6b6wiydwx4cWJsFyy-42" value="&lt;font size=&quot;1&quot;&gt;&lt;b&gt;3&lt;/b&gt;&lt;/font&gt;" style="rounded=1;whiteSpace=wrap;html=1;" parent="1" vertex="1">
          <mxGeometry x="301" y="489" width="76" height="40" as="geometry" />
        </mxCell>
        <mxCell id="qXt6b6wiydwx4cWJsFyy-49" value="" style="group" parent="1" vertex="1" connectable="0">
          <mxGeometry x="395" y="15" width="163" height="239" as="geometry" />
        </mxCell>
        <mxCell id="qXt6b6wiydwx4cWJsFyy-43" value="" style="strokeWidth=3;html=1;shape=mxgraph.flowchart.annotation_2;align=left;labelPosition=right;pointerEvents=1;direction=west;" parent="qXt6b6wiydwx4cWJsFyy-49" vertex="1">
          <mxGeometry y="15" width="89" height="209" as="geometry" />
        </mxCell>
        <mxCell id="qXt6b6wiydwx4cWJsFyy-45" value="" style="group" parent="qXt6b6wiydwx4cWJsFyy-49" vertex="1" connectable="0">
          <mxGeometry x="87" width="76" height="239" as="geometry" />
        </mxCell>
        <mxCell id="qXt6b6wiydwx4cWJsFyy-46" value="" style="strokeWidth=3;html=1;shape=mxgraph.flowchart.annotation_2;align=left;labelPosition=right;pointerEvents=1;" parent="qXt6b6wiydwx4cWJsFyy-45" vertex="1">
          <mxGeometry width="44.36756756756757" height="239" as="geometry" />
        </mxCell>
        <mxCell id="qXt6b6wiydwx4cWJsFyy-47" value="" style="endArrow=classic;html=1;rounded=0;strokeWidth=3;" parent="qXt6b6wiydwx4cWJsFyy-45" edge="1">
          <mxGeometry width="50" height="50" relative="1" as="geometry">
            <mxPoint x="43.545945945945945" as="sourcePoint" />
            <mxPoint x="76" as="targetPoint" />
          </mxGeometry>
        </mxCell>
        <mxCell id="qXt6b6wiydwx4cWJsFyy-48" value="" style="endArrow=classic;html=1;rounded=0;strokeWidth=3;" parent="qXt6b6wiydwx4cWJsFyy-45" edge="1">
          <mxGeometry width="50" height="50" relative="1" as="geometry">
            <mxPoint x="40.259459459459464" y="239" as="sourcePoint" />
            <mxPoint x="72.71351351351352" y="239" as="targetPoint" />
          </mxGeometry>
        </mxCell>
        <mxCell id="qXt6b6wiydwx4cWJsFyy-50" value="&lt;b&gt;&lt;font style=&quot;font-size: 14px;&quot;&gt;校验成功&lt;/font&gt;&lt;/b&gt;" style="text;html=1;align=center;verticalAlign=middle;resizable=0;points=[];autosize=1;strokeColor=none;fillColor=none;" parent="1" vertex="1">
          <mxGeometry x="479" y="-24" width="74" height="29" as="geometry" />
        </mxCell>
        <mxCell id="qXt6b6wiydwx4cWJsFyy-51" value="&lt;b&gt;&lt;font style=&quot;font-size: 14px;&quot;&gt;校验失败&lt;/font&gt;&lt;/b&gt;" style="text;html=1;align=center;verticalAlign=middle;resizable=0;points=[];autosize=1;strokeColor=none;fillColor=none;" parent="1" vertex="1">
          <mxGeometry x="473" y="261" width="74" height="29" as="geometry" />
        </mxCell>
        <mxCell id="qXt6b6wiydwx4cWJsFyy-52" value="&lt;font size=&quot;1&quot;&gt;&lt;b&gt;welcome.html&lt;/b&gt;&lt;/font&gt;" style="rounded=1;whiteSpace=wrap;html=1;" parent="1" vertex="1">
          <mxGeometry x="558" y="-6" width="124" height="40" as="geometry" />
        </mxCell>
        <mxCell id="qXt6b6wiydwx4cWJsFyy-53" value="&lt;font size=&quot;1&quot;&gt;&lt;b&gt;logError.html&lt;/b&gt;&lt;/font&gt;" style="rounded=1;whiteSpace=wrap;html=1;" parent="1" vertex="1">
          <mxGeometry x="553" y="231" width="124" height="40" as="geometry" />
        </mxCell>
        <mxCell id="qXt6b6wiydwx4cWJsFyy-61" value="" style="strokeWidth=2;html=1;shape=mxgraph.flowchart.annotation_2;align=left;labelPosition=right;pointerEvents=1;direction=west;" parent="1" vertex="1">
          <mxGeometry x="591" y="-208" width="214" height="715" as="geometry" />
        </mxCell>
        <mxCell id="qXt6b6wiydwx4cWJsFyy-63" value="" style="group" parent="1" vertex="1" connectable="0">
          <mxGeometry x="797" y="-100" width="98" height="498" as="geometry" />
        </mxCell>
        <mxCell id="qXt6b6wiydwx4cWJsFyy-57" value="" style="strokeWidth=3;html=1;shape=mxgraph.flowchart.annotation_2;align=left;labelPosition=right;pointerEvents=1;" parent="qXt6b6wiydwx4cWJsFyy-63" vertex="1">
          <mxGeometry width="57.210810810810784" height="497.99999999999994" as="geometry" />
        </mxCell>
        <mxCell id="qXt6b6wiydwx4cWJsFyy-58" value="" style="endArrow=classic;html=1;rounded=0;strokeWidth=3;" parent="qXt6b6wiydwx4cWJsFyy-63" edge="1">
          <mxGeometry width="50" height="50" relative="1" as="geometry">
            <mxPoint x="56.15135135135136" as="sourcePoint" />
            <mxPoint x="98" as="targetPoint" />
          </mxGeometry>
        </mxCell>
        <mxCell id="qXt6b6wiydwx4cWJsFyy-59" value="" style="endArrow=classic;html=1;rounded=0;strokeWidth=3;" parent="qXt6b6wiydwx4cWJsFyy-63" edge="1">
          <mxGeometry width="50" height="50" relative="1" as="geometry">
            <mxPoint x="51.91351351351346" y="497.99999999999994" as="sourcePoint" />
            <mxPoint x="93.7621621621622" y="497.99999999999994" as="targetPoint" />
          </mxGeometry>
        </mxCell>
        <mxCell id="qXt6b6wiydwx4cWJsFyy-64" value="&lt;b&gt;&lt;font style=&quot;font-size: 14px;&quot;&gt;校验成功&lt;/font&gt;&lt;/b&gt;" style="text;html=1;align=center;verticalAlign=middle;resizable=0;points=[];autosize=1;strokeColor=none;fillColor=none;" parent="1" vertex="1">
          <mxGeometry x="788" y="-138" width="74" height="29" as="geometry" />
        </mxCell>
        <mxCell id="qXt6b6wiydwx4cWJsFyy-65" value="&lt;b&gt;&lt;font style=&quot;font-size: 14px;&quot;&gt;校验失败&lt;/font&gt;&lt;/b&gt;" style="text;html=1;align=center;verticalAlign=middle;resizable=0;points=[];autosize=1;strokeColor=none;fillColor=none;" parent="1" vertex="1">
          <mxGeometry x="782" y="406" width="74" height="29" as="geometry" />
        </mxCell>
        <mxCell id="qXt6b6wiydwx4cWJsFyy-66" value="&lt;font size=&quot;1&quot;&gt;&lt;b&gt;log.html&lt;/b&gt;&lt;/font&gt;" style="rounded=1;whiteSpace=wrap;html=1;" parent="1" vertex="1">
          <mxGeometry x="895" y="-119" width="124" height="40" as="geometry" />
        </mxCell>
        <mxCell id="qXt6b6wiydwx4cWJsFyy-67" value="&lt;font size=&quot;1&quot;&gt;&lt;b&gt;registerError.html&lt;/b&gt;&lt;/font&gt;" style="rounded=1;whiteSpace=wrap;html=1;" parent="1" vertex="1">
          <mxGeometry x="891" y="375" width="140" height="39" as="geometry" />
        </mxCell>
        <mxCell id="qXt6b6wiydwx4cWJsFyy-68" value="" style="endArrow=none;html=1;rounded=0;strokeWidth=2;" parent="1" edge="1">
          <mxGeometry width="50" height="50" relative="1" as="geometry">
            <mxPoint x="326" y="-210" as="sourcePoint" />
            <mxPoint x="593" y="-208" as="targetPoint" />
          </mxGeometry>
        </mxCell>
        <mxCell id="qXt6b6wiydwx4cWJsFyy-69" value="" style="endArrow=none;html=1;rounded=0;strokeWidth=2;" parent="1" edge="1">
          <mxGeometry width="50" height="50" relative="1" as="geometry">
            <mxPoint x="388" y="505" as="sourcePoint" />
            <mxPoint x="655" y="507" as="targetPoint" />
          </mxGeometry>
        </mxCell>
        <mxCell id="qXt6b6wiydwx4cWJsFyy-70" value="" style="endArrow=classic;html=1;rounded=0;strokeWidth=3;" parent="1" edge="1">
          <mxGeometry width="50" height="50" relative="1" as="geometry">
            <mxPoint x="-50" y="395" as="sourcePoint" />
            <mxPoint x="318" y="717" as="targetPoint" />
            <Array as="points">
              <mxPoint x="-47" y="715" />
            </Array>
          </mxGeometry>
        </mxCell>
        <mxCell id="qXt6b6wiydwx4cWJsFyy-71" value="&lt;b&gt;&lt;font style=&quot;font-size: 14px;&quot;&gt;跳转到welcome.html后&lt;/font&gt;&lt;/b&gt;" style="text;html=1;align=center;verticalAlign=middle;resizable=0;points=[];autosize=1;strokeColor=none;fillColor=none;" parent="1" vertex="1">
          <mxGeometry x="36" y="678" width="167" height="29" as="geometry" />
        </mxCell>
        <mxCell id="qXt6b6wiydwx4cWJsFyy-72" value="&lt;b&gt;判断/之后&lt;/b&gt;&lt;b style=&quot;background-color: initial;&quot;&gt;第一个字符&lt;/b&gt;" style="text;html=1;align=center;verticalAlign=middle;resizable=0;points=[];autosize=1;strokeColor=none;fillColor=none;" parent="1" vertex="1">
          <mxGeometry x="53" y="725" width="129" height="26" as="geometry" />
        </mxCell>
        <mxCell id="qXt6b6wiydwx4cWJsFyy-73" value="" style="group" parent="1" vertex="1" connectable="0">
          <mxGeometry x="247" y="580" width="70" height="274" as="geometry" />
        </mxCell>
        <mxCell id="qXt6b6wiydwx4cWJsFyy-74" value="" style="strokeWidth=3;html=1;shape=mxgraph.flowchart.annotation_2;align=left;labelPosition=right;pointerEvents=1;" parent="qXt6b6wiydwx4cWJsFyy-73" vertex="1">
          <mxGeometry x="-43.07692307692308" width="83.94615384615386" height="274" as="geometry" />
        </mxCell>
        <mxCell id="qXt6b6wiydwx4cWJsFyy-75" value="" style="endArrow=classic;html=1;rounded=0;strokeWidth=3;" parent="qXt6b6wiydwx4cWJsFyy-73" edge="1">
          <mxGeometry width="50" height="50" relative="1" as="geometry">
            <mxPoint x="40.10810810810812" as="sourcePoint" />
            <mxPoint x="70.00000000000003" as="targetPoint" />
          </mxGeometry>
        </mxCell>
        <mxCell id="qXt6b6wiydwx4cWJsFyy-76" value="" style="endArrow=classic;html=1;rounded=0;strokeWidth=3;" parent="qXt6b6wiydwx4cWJsFyy-73" edge="1">
          <mxGeometry width="50" height="50" relative="1" as="geometry">
            <mxPoint x="37.081081081081095" y="274" as="sourcePoint" />
            <mxPoint x="66.972972972973" y="274" as="targetPoint" />
          </mxGeometry>
        </mxCell>
        <mxCell id="qXt6b6wiydwx4cWJsFyy-77" value="&lt;font size=&quot;1&quot;&gt;&lt;b&gt;5&lt;/b&gt;&lt;/font&gt;" style="rounded=1;whiteSpace=wrap;html=1;" parent="1" vertex="1">
          <mxGeometry x="315" y="557" width="76" height="40" as="geometry" />
        </mxCell>
        <mxCell id="qXt6b6wiydwx4cWJsFyy-78" value="&lt;font size=&quot;1&quot;&gt;&lt;b&gt;6&lt;/b&gt;&lt;/font&gt;" style="rounded=1;whiteSpace=wrap;html=1;" parent="1" vertex="1">
          <mxGeometry x="319" y="693" width="76" height="40" as="geometry" />
        </mxCell>
        <mxCell id="qXt6b6wiydwx4cWJsFyy-79" value="&lt;font size=&quot;1&quot;&gt;&lt;b&gt;7&lt;/b&gt;&lt;/font&gt;" style="rounded=1;whiteSpace=wrap;html=1;" parent="1" vertex="1">
          <mxGeometry x="315" y="833" width="76" height="40" as="geometry" />
        </mxCell>
        <mxCell id="qXt6b6wiydwx4cWJsFyy-80" value="" style="endArrow=classic;html=1;rounded=0;strokeWidth=3;" parent="1" edge="1">
          <mxGeometry width="50" height="50" relative="1" as="geometry">
            <mxPoint x="391" y="580" as="sourcePoint" />
            <mxPoint x="470" y="580" as="targetPoint" />
          </mxGeometry>
        </mxCell>
        <mxCell id="qXt6b6wiydwx4cWJsFyy-81" value="" style="endArrow=classic;html=1;rounded=0;strokeWidth=3;" parent="1" edge="1">
          <mxGeometry width="50" height="50" relative="1" as="geometry">
            <mxPoint x="391" y="854" as="sourcePoint" />
            <mxPoint x="470" y="854" as="targetPoint" />
          </mxGeometry>
        </mxCell>
        <mxCell id="qXt6b6wiydwx4cWJsFyy-82" value="" style="endArrow=classic;html=1;rounded=0;strokeWidth=3;" parent="1" edge="1">
          <mxGeometry width="50" height="50" relative="1" as="geometry">
            <mxPoint x="394" y="716.5" as="sourcePoint" />
            <mxPoint x="473" y="716.5" as="targetPoint" />
          </mxGeometry>
        </mxCell>
        <mxCell id="qXt6b6wiydwx4cWJsFyy-83" value="&lt;b&gt;&lt;font style=&quot;font-size: 14px;&quot;&gt;图片&lt;/font&gt;&lt;/b&gt;" style="text;html=1;align=center;verticalAlign=middle;resizable=0;points=[];autosize=1;strokeColor=none;fillColor=none;" parent="1" vertex="1">
          <mxGeometry x="405" y="542" width="46" height="29" as="geometry" />
        </mxCell>
        <mxCell id="qXt6b6wiydwx4cWJsFyy-84" value="&lt;b&gt;&lt;font style=&quot;font-size: 14px;&quot;&gt;视频&lt;/font&gt;&lt;/b&gt;" style="text;html=1;align=center;verticalAlign=middle;resizable=0;points=[];autosize=1;strokeColor=none;fillColor=none;" parent="1" vertex="1">
          <mxGeometry x="409" y="678" width="46" height="29" as="geometry" />
        </mxCell>
        <mxCell id="qXt6b6wiydwx4cWJsFyy-85" value="&lt;b&gt;&lt;font style=&quot;font-size: 14px;&quot;&gt;关注&lt;/font&gt;&lt;/b&gt;" style="text;html=1;align=center;verticalAlign=middle;resizable=0;points=[];autosize=1;strokeColor=none;fillColor=none;" parent="1" vertex="1">
          <mxGeometry x="405" y="818" width="46" height="29" as="geometry" />
        </mxCell>
        <mxCell id="qXt6b6wiydwx4cWJsFyy-86" value="&lt;font size=&quot;1&quot;&gt;&lt;b&gt;picture.html&lt;/b&gt;&lt;/font&gt;" style="rounded=1;whiteSpace=wrap;html=1;" parent="1" vertex="1">
          <mxGeometry x="468" y="558" width="112" height="39" as="geometry" />
        </mxCell>
        <mxCell id="qXt6b6wiydwx4cWJsFyy-87" value="&lt;font size=&quot;1&quot;&gt;&lt;b&gt;vedio.html&lt;/b&gt;&lt;/font&gt;" style="rounded=1;whiteSpace=wrap;html=1;" parent="1" vertex="1">
          <mxGeometry x="473" y="697.5" width="112" height="39" as="geometry" />
        </mxCell>
        <mxCell id="qXt6b6wiydwx4cWJsFyy-88" value="&lt;font size=&quot;1&quot;&gt;&lt;b&gt;fans.html&lt;/b&gt;&lt;/font&gt;" style="rounded=1;whiteSpace=wrap;html=1;" parent="1" vertex="1">
          <mxGeometry x="471" y="833" width="112" height="39" as="geometry" />
        </mxCell>
      </root>
    </mxGraphModel>
  </diagram>
</mxfile>
